<?xml version="1.0" encoding="utf-8"?><!-- Uploaded to: SVG Repo, www.svgrepo.com, Generator: SVG Repo Mixer Tools -->
<svg fill="#000000" width="800px" height="800px" viewBox="0 0 24 24" id="up-trend-round" data-name="Flat Color" xmlns="http://www.w3.org/2000/svg" class="icon flat-color"><path id="primary" d="M21,6H17a1,1,0,0,0,0,2h1.59L13.5,13.09,10.91,10.5a2,2,0,0,0-2.82,0l-5.8,5.79a1,1,0,0,0,0,1.42,1,1,0,0,0,1.42,0l5.79-5.8,2.59,2.59a2,2,0,0,0,2.82,0L20,9.41V11a1,1,0,0,0,2,0V7A1,1,0,0,0,21,6Z" style="fill: rgb(0, 0, 0);"></path></svg>